<?xml version="1.0" encoding="iso-8859-1"?>
<!-- Generator: Adobe Illustrator 18.0.0, SVG Export Plug-In . SVG Version: 6.00 Build 0)  -->
<!DOCTYPE svg PUBLIC "-//W3C//DTD SVG 1.1//EN" "http://www.w3.org/Graphics/SVG/1.1/DTD/svg11.dtd">
<svg version="1.1" id="Capa_1" xmlns="http://www.w3.org/2000/svg" xmlns:xlink="http://www.w3.org/1999/xlink" x="0px" y="0px"
	 viewBox="0 0 191.35 191.35" style="enable-background:new 0 0 191.35 191.35;" xml:space="preserve">
<g>
	<g>
		<g>
			<circle style="fill-rule:evenodd;clip-rule:evenodd;fill:#E6E6E6;" cx="111.532" cy="70.91" r="0.587"/>
			<circle style="fill-rule:evenodd;clip-rule:evenodd;fill:#E6E6E6;" cx="111.532" cy="78.328" r="0.588"/>
			<circle style="fill-rule:evenodd;clip-rule:evenodd;fill:#E6E6E6;" cx="111.532" cy="85.747" r="0.587"/>
			<circle style="fill-rule:evenodd;clip-rule:evenodd;fill:#E6E6E6;" cx="111.532" cy="93.165" r="0.587"/>
		</g>
		<path style="fill-rule:evenodd;clip-rule:evenodd;fill:#D9E0E2;" d="M50.521,15.08c22.349-2.098,44.203,34.112,50.23,81.991
			c-10.39,13.661-24.336,22.555-40.276,24.052c-15.94,1.496-31.298-4.648-44.048-16.136C13.438,56.822,28.172,17.179,50.521,15.08z"
			/>
		
			<ellipse transform="matrix(-0.318 -0.9481 0.9481 -0.318 35.3937 98.2237)" style="fill-rule:evenodd;clip-rule:evenodd;fill:#FFF4C7;" cx="53.025" cy="36.382" rx="10.88" ry="19.508"/>
		
			<ellipse transform="matrix(-0.318 -0.9481 0.9481 -0.318 37.9457 89.2747)" style="fill-rule:evenodd;clip-rule:evenodd;fill:#FFF4C7;" cx="51.081" cy="30.99" rx="12.464" ry="16.588"/>
		<g>
			<path style="fill-rule:evenodd;clip-rule:evenodd;fill:#FFFFFF;" d="M39.947,32.654c-0.019,0.047-0.04,0.092-0.066,0.133
				c0.104,0.071,0.194,0.167,0.259,0.286c0.216,0.398,0.069,0.896-0.329,1.112c-0.044,0.024-0.09,0.044-0.136,0.059
				c0.034,0.121,0.04,0.253,0.014,0.385c-0.09,0.444-0.522,0.731-0.967,0.642c-0.05-0.011-0.098-0.025-0.143-0.043
				c-0.052,0.115-0.131,0.22-0.236,0.305c-0.354,0.282-0.87,0.224-1.153-0.131c-0.031-0.039-0.059-0.081-0.081-0.124
				c-0.114,0.056-0.242,0.085-0.377,0.081c-0.453-0.012-0.811-0.388-0.799-0.841c0.001-0.051,0.007-0.101,0.017-0.148
				c-0.123-0.031-0.239-0.091-0.342-0.181c-0.339-0.3-0.371-0.818-0.071-1.157c0.034-0.038,0.07-0.072,0.108-0.103
				c-0.073-0.103-0.125-0.224-0.146-0.357c-0.067-0.448,0.241-0.866,0.691-0.933c0.049-0.008,0.099-0.011,0.148-0.009
				c0.009-0.126,0.047-0.253,0.117-0.367c0.237-0.387,0.742-0.509,1.128-0.272c0.044,0.026,0.083,0.056,0.12,0.089
				c0.088-0.092,0.198-0.162,0.326-0.205c0.43-0.145,0.895,0.087,1.039,0.516c0.016,0.049,0.027,0.098,0.034,0.146
				c0.125-0.013,0.256,0.003,0.382,0.053C39.906,31.757,40.113,32.232,39.947,32.654z"/>
			<path style="fill-rule:evenodd;clip-rule:evenodd;fill:#FFFFFF;" d="M43.775,28.521c-0.018,0.047-0.04,0.091-0.066,0.133
				c0.104,0.071,0.194,0.167,0.259,0.286c0.216,0.398,0.069,0.896-0.328,1.112c-0.045,0.024-0.091,0.044-0.137,0.06
				c0.034,0.121,0.041,0.252,0.015,0.385c-0.091,0.444-0.523,0.73-0.967,0.641c-0.051-0.01-0.098-0.024-0.144-0.042
				c-0.052,0.115-0.131,0.22-0.236,0.304c-0.354,0.283-0.87,0.225-1.153-0.13c-0.031-0.039-0.059-0.081-0.081-0.124
				c-0.114,0.055-0.242,0.084-0.377,0.081c-0.453-0.012-0.811-0.388-0.799-0.841c0.001-0.051,0.007-0.101,0.017-0.148
				c-0.123-0.031-0.239-0.09-0.341-0.18c-0.34-0.301-0.372-0.818-0.072-1.158c0.034-0.037,0.07-0.072,0.108-0.101
				c-0.073-0.104-0.125-0.224-0.144-0.357c-0.068-0.448,0.241-0.866,0.689-0.934c0.049-0.007,0.099-0.01,0.148-0.009
				c0.009-0.126,0.048-0.252,0.117-0.366c0.237-0.387,0.742-0.509,1.128-0.271c0.044,0.026,0.083,0.056,0.12,0.088
				c0.088-0.091,0.198-0.162,0.326-0.205c0.43-0.144,0.895,0.088,1.039,0.517c0.016,0.048,0.027,0.097,0.034,0.146
				c0.126-0.014,0.256,0.003,0.382,0.053C43.734,27.622,43.941,28.099,43.775,28.521z"/>
			<path style="fill-rule:evenodd;clip-rule:evenodd;fill:#FFFFFF;" d="M48.617,25.705c-0.02,0.047-0.041,0.092-0.067,0.133
				c0.104,0.071,0.194,0.167,0.259,0.286c0.217,0.398,0.07,0.896-0.328,1.112c-0.044,0.024-0.09,0.044-0.137,0.06
				c0.034,0.121,0.041,0.253,0.015,0.386c-0.091,0.443-0.523,0.73-0.967,0.641c-0.05-0.011-0.098-0.025-0.143-0.043
				c-0.053,0.115-0.132,0.22-0.237,0.305c-0.354,0.281-0.87,0.224-1.152-0.131c-0.031-0.039-0.059-0.081-0.082-0.124
				c-0.113,0.055-0.242,0.085-0.377,0.081c-0.453-0.012-0.81-0.388-0.799-0.841c0.001-0.05,0.007-0.101,0.018-0.147
				c-0.123-0.032-0.24-0.091-0.342-0.181c-0.34-0.3-0.371-0.818-0.072-1.158c0.034-0.038,0.07-0.071,0.109-0.103
				c-0.074-0.102-0.126-0.223-0.146-0.357c-0.067-0.448,0.241-0.866,0.689-0.933c0.05-0.008,0.1-0.011,0.149-0.01
				c0.009-0.125,0.048-0.251,0.118-0.367c0.236-0.386,0.741-0.508,1.128-0.271c0.043,0.026,0.083,0.056,0.119,0.088
				c0.088-0.091,0.198-0.161,0.326-0.204c0.43-0.145,0.895,0.087,1.039,0.516c0.016,0.049,0.027,0.097,0.034,0.146
				c0.126-0.013,0.256,0.003,0.382,0.052C48.575,24.807,48.782,25.283,48.617,25.705z"/>
			<path style="fill-rule:evenodd;clip-rule:evenodd;fill:#FFFFFF;" d="M60.733,25.682c0.044,0.026,0.088,0.049,0.134,0.066
				c-0.041,0.119-0.055,0.25-0.034,0.384c0.067,0.448,0.485,0.757,0.934,0.69c0.05-0.008,0.098-0.02,0.145-0.035
				c0.045,0.117,0.119,0.227,0.221,0.316c0.339,0.301,0.857,0.269,1.157-0.071c0.033-0.038,0.064-0.078,0.088-0.12
				c0.111,0.06,0.238,0.098,0.373,0.101c0.453,0.011,0.829-0.347,0.841-0.8c0.001-0.05-0.002-0.1-0.01-0.148
				c0.124-0.024,0.244-0.078,0.35-0.162c0.354-0.282,0.413-0.799,0.131-1.152c-0.032-0.039-0.066-0.076-0.104-0.108
				c0.079-0.1,0.137-0.218,0.163-0.35c0.091-0.444-0.196-0.877-0.641-0.967c-0.05-0.01-0.099-0.016-0.147-0.017
				c-0.003-0.126-0.035-0.254-0.1-0.372c-0.217-0.399-0.715-0.546-1.112-0.329c-0.045,0.024-0.086,0.052-0.124,0.083
				c-0.083-0.096-0.19-0.173-0.315-0.222c-0.422-0.166-0.898,0.042-1.063,0.464c-0.019,0.047-0.033,0.094-0.042,0.142
				c-0.125-0.02-0.256-0.01-0.385,0.033c-0.429,0.144-0.66,0.608-0.517,1.038c0.017,0.048,0.036,0.093,0.061,0.136
				c-0.108,0.066-0.203,0.157-0.274,0.273C60.225,24.941,60.347,25.445,60.733,25.682z"/>
			<path style="fill-rule:evenodd;clip-rule:evenodd;fill:#FFFFFF;" d="M55.187,24.692c0.043,0.026,0.087,0.049,0.133,0.066
				c-0.041,0.119-0.055,0.25-0.034,0.384c0.067,0.448,0.485,0.757,0.934,0.689c0.05-0.008,0.098-0.019,0.145-0.035
				c0.046,0.117,0.119,0.226,0.221,0.316c0.34,0.299,0.857,0.268,1.157-0.072c0.033-0.037,0.063-0.078,0.088-0.12
				c0.111,0.061,0.238,0.097,0.373,0.101c0.453,0.012,0.829-0.347,0.841-0.8c0.001-0.05-0.002-0.1-0.01-0.147
				c0.124-0.025,0.244-0.079,0.35-0.163c0.354-0.282,0.413-0.799,0.131-1.153c-0.032-0.039-0.066-0.075-0.103-0.107
				c0.078-0.098,0.136-0.217,0.163-0.349c0.09-0.444-0.197-0.877-0.642-0.967c-0.049-0.011-0.099-0.016-0.147-0.017
				c-0.003-0.126-0.035-0.254-0.1-0.373c-0.217-0.397-0.715-0.545-1.112-0.328c-0.045,0.023-0.086,0.052-0.124,0.082
				c-0.083-0.095-0.19-0.172-0.315-0.221c-0.422-0.166-0.898,0.041-1.063,0.463c-0.019,0.047-0.032,0.095-0.042,0.143
				c-0.125-0.019-0.256-0.01-0.384,0.034c-0.43,0.143-0.661,0.608-0.518,1.038c0.017,0.048,0.037,0.094,0.061,0.136
				c-0.108,0.065-0.203,0.157-0.273,0.272C54.678,23.951,54.8,24.456,55.187,24.692z"/>
			<path style="fill-rule:evenodd;clip-rule:evenodd;fill:#FFFFFF;" d="M49.626,25.366c0.044,0.026,0.088,0.048,0.134,0.066
				c-0.041,0.12-0.054,0.251-0.034,0.385c0.067,0.447,0.485,0.756,0.934,0.69c0.05-0.008,0.098-0.021,0.145-0.036
				c0.046,0.118,0.119,0.228,0.221,0.316c0.34,0.3,0.857,0.268,1.158-0.071c0.033-0.038,0.063-0.078,0.088-0.12
				c0.11,0.061,0.237,0.097,0.372,0.1c0.453,0.012,0.829-0.346,0.841-0.799c0.001-0.05-0.002-0.101-0.01-0.148
				c0.124-0.024,0.244-0.079,0.35-0.163c0.354-0.282,0.413-0.798,0.131-1.152c-0.031-0.039-0.066-0.075-0.102-0.108
				c0.079-0.099,0.136-0.217,0.163-0.35c0.09-0.443-0.197-0.877-0.641-0.967c-0.051-0.01-0.1-0.016-0.148-0.016
				c-0.003-0.127-0.035-0.254-0.1-0.373c-0.217-0.399-0.715-0.545-1.112-0.329c-0.044,0.024-0.086,0.052-0.124,0.083
				c-0.083-0.095-0.19-0.172-0.316-0.222c-0.422-0.165-0.897,0.042-1.063,0.464c-0.019,0.047-0.032,0.095-0.042,0.143
				c-0.125-0.019-0.256-0.01-0.384,0.033c-0.43,0.145-0.661,0.609-0.518,1.038c0.017,0.049,0.037,0.094,0.06,0.137
				c-0.108,0.066-0.202,0.157-0.273,0.273C49.119,24.625,49.241,25.13,49.626,25.366z"/>
		</g>
		
			<rect x="58.68" y="56.139" transform="matrix(-0.9281 0.3724 -0.3724 -0.9281 148.316 100.0494)" style="fill-rule:evenodd;clip-rule:evenodd;fill:#E7B791;" width="11.634" height="16.416"/>
		
			<ellipse transform="matrix(-0.318 -0.9481 0.9481 -0.318 29.5058 116.5644)" style="fill-rule:evenodd;clip-rule:evenodd;fill:#FFD8B8;" cx="56.677" cy="47.67" rx="19.555" ry="25.369"/>
		<path style="fill-rule:evenodd;clip-rule:evenodd;fill:#FFF4C7;" d="M31.831,50.572c12.508-22.259,36.445-22.04,46.558-15.387
			C67.519,14.779,30.178,22.798,31.831,50.572z"/>
		<g>
			
				<ellipse transform="matrix(-0.3181 -0.9481 0.9481 -0.3181 41.7422 119.3938)" style="fill-rule:evenodd;clip-rule:evenodd;fill:#666666;" cx="63.81" cy="44.685" rx="2.467" ry="1.41"/>
			
				<ellipse transform="matrix(-0.3182 -0.948 0.948 -0.3182 17.8289 112.0012)" style="fill-rule:evenodd;clip-rule:evenodd;fill:#666666;" cx="49.187" cy="49.59" rx="2.467" ry="1.41"/>
		</g>
		<path style="fill-rule:evenodd;clip-rule:evenodd;fill:#E7B791;" d="M67.436,51.842c-2.523,3.853-11.544,6.763-16.826,5.645
			C56.669,61.225,65.791,58.366,67.436,51.842z"/>
		
			<ellipse transform="matrix(-0.5239 -0.8518 0.8518 -0.5239 2.2399 112.7266)" style="fill-rule:evenodd;clip-rule:evenodd;fill:#FFD8B8;" cx="32.625" cy="55.737" rx="5.761" ry="3.687"/>
		<path style="fill-rule:evenodd;clip-rule:evenodd;fill:#FFF4C7;" d="M45.813,77.92c-4.833-1.716-6.955-6.753-4.6-10.302
			c2.356-3.548,2.643-6.24-0.567-9.301c-3.21-3.061-3.845-5.687-0.581-8.362c3.264-2.676,4.123-4.128,3.104-8.641
			c-1.021-4.513,3.828-6.686,8.772-8.144c-6.417,0.649-12.084,1.519-14.383,5.323c-2.298,3.806-4.994,3.173-5.608,8.32
			c-0.614,5.146,1.904,9.223,5.114,12.283c3.21,3.061,4.133,4.767,1.777,8.314C36.486,70.961,38.191,77.439,45.813,77.92z"/>
		
			<ellipse transform="matrix(-0.0959 -0.9954 0.9954 -0.0959 48.8862 124.1154)" style="fill-rule:evenodd;clip-rule:evenodd;fill:#FFD8B8;" cx="80.811" cy="39.855" rx="5.761" ry="3.687"/>
		<path style="fill-rule:evenodd;clip-rule:evenodd;fill:#FFF4C7;" d="M83.813,65.173c2.82-4.282,1.476-9.581-2.543-10.991
			c-4.019-1.41-5.871-3.385-5.156-7.762c0.715-4.377-0.361-6.854-4.578-7.021c-4.217-0.166-5.778-0.807-7.687-5.021
			c-1.907-4.215-7.086-3.024-11.908-1.206c5.51-3.351,10.555-6.075,14.683-4.426c4.128,1.649,5.897-0.481,9.491,3.255
			c3.594,3.735,4.043,8.506,3.328,12.883c-0.716,4.377-0.424,6.295,3.596,7.705C87.057,53.998,89.604,60.194,83.813,65.173z"/>
		<path style="fill-rule:evenodd;clip-rule:evenodd;fill:#1A1A1A;" d="M89.652,64.321c-7.015,10.375-6.516,14.104-17.802,27.468
			l2.535,3.649c12.302-8.769,11.047-9.795,18.809-15.209C97.449,77.263,93.849,66.363,89.652,64.321z"/>
		<g>
			<path style="fill-rule:evenodd;clip-rule:evenodd;fill:#323232;" d="M114.39,186.885c-1.122-24.093-2.243-48.186-3.365-72.278
				c5.189,0,10.38,0,15.568,0c-1.082,24.093-2.165,48.185-3.247,72.278C120.361,186.885,117.374,186.885,114.39,186.885z"/>
			<path style="fill-rule:evenodd;clip-rule:evenodd;fill:#323232;" d="M99.794,186.885c-1.122-24.093-2.242-48.186-3.365-72.278
				c5.19,0,10.38,0,15.569,0c-1.082,24.093-2.166,48.185-3.248,72.278C105.765,186.885,102.78,186.885,99.794,186.885z"/>
		</g>
		<rect x="95.114" y="115.518" style="fill-rule:evenodd;clip-rule:evenodd;fill:#1A1A1A;" width="32.597" height="3.379"/>
		<g>
			<path style="fill-rule:evenodd;clip-rule:evenodd;fill:#FFD8B8;" d="M74.66,67.363c12.119-2.033,29.191-7.812,41.76-16.524
				l2.315,3.496c-10.626,9.682-28.646,19.489-37.782,22.136C70.041,79.631,62.434,69.413,74.66,67.363z"/>
			<path style="fill-rule:evenodd;clip-rule:evenodd;fill:#FFD8B8;" d="M116.037,46.787c1.142-1.029,1.977-0.784,2.376,0.227
				c1.484-1.728,3.895-1.816,4.695-0.929c1.558,1.728,0.917,4.845-1.432,6.96c-2.348,2.116-5.514,2.431-7.07,0.703
				C113.049,52.019,113.69,48.903,116.037,46.787z"/>
		</g>
		<g>
			<path style="fill:#CAD3D7;" d="M137.118,68.857c0.92,1.817,1.768,2.889,2.568,3.145l0.008,0.002
				c0.598,0.191,1.409-0.208,2.476-1.246c2.54-2.469,4.726-2.152,6.567-0.679c1.393,1.115,2.357,2.924,3.095,4.4
				c0.152,0.306,0.397,0.381,0.696,0.302c0.935-0.248,2.144-1.081,3.463-2.205l2.483,2.909c-1.731,1.476-3.429,2.599-4.963,3.005
				c-2.169,0.574-3.957,0-5.106-2.303c-0.566-1.133-1.283-2.503-2.059-3.123c-0.328-0.263-0.799-0.24-1.504,0.445
				c-2.179,2.117-4.259,2.798-6.319,2.137v-0.001c-1.854-0.597-3.43-2.312-4.82-5.063L137.118,68.857z"/>
			<path style="fill:#CAD3D7;" d="M138.368,63.293c1.668,1.164,2.924,1.703,3.759,1.549c0.615-0.114,1.141-0.848,1.587-2.262
				c1.07-3.385,3.148-4.142,5.472-3.715c1.751,0.321,3.456,1.456,4.803,2.406c0.282,0.199,0.534,0.15,0.76-0.061
				c0.694-0.65,1.363-1.959,1.996-3.583l3.578,1.386c-0.822,2.11-1.787,3.9-2.957,4.996c-1.639,1.534-3.484,1.876-5.585,0.395
				c-1.035-0.731-2.318-1.597-3.3-1.777c-0.408-0.075-0.809,0.166-1.104,1.098c-0.917,2.903-2.429,4.49-4.557,4.885
				c-1.91,0.354-4.111-0.412-6.646-2.18L138.368,63.293z"/>
			<path style="fill-rule:evenodd;clip-rule:evenodd;fill:#F2F8FA;" d="M130.552,51.05c0.178,0.232,0.33,0.477,0.459,0.728
				c0.665-0.305,1.411-0.459,2.192-0.423c2.62,0.12,4.646,2.341,4.525,4.961c-0.014,0.293-0.054,0.578-0.116,0.854
				c0.705,0.194,1.376,0.555,1.952,1.085c1.929,1.775,2.053,4.78,0.276,6.709c-0.197,0.216-0.412,0.409-0.638,0.579
				c0.416,0.603,0.698,1.31,0.799,2.085c0.336,2.602-1.5,4.982-4.101,5.318c-0.291,0.038-0.578,0.049-0.86,0.034
				c-0.069,0.728-0.308,1.451-0.73,2.11c-1.414,2.209-4.352,2.852-6.559,1.438c-0.247-0.158-0.474-0.335-0.681-0.528
				c-0.521,0.515-1.169,0.915-1.915,1.148c-2.503,0.783-5.167-0.611-5.95-3.114c-0.087-0.279-0.147-0.562-0.182-0.842
				c-0.729,0.059-1.483-0.051-2.205-0.352c-2.421-1.01-3.564-3.79-2.556-6.21c0.112-0.271,0.247-0.525,0.401-0.763
				c-0.597-0.424-1.104-0.992-1.464-1.686c-1.205-2.329-0.294-5.194,2.035-6.4c0.26-0.135,0.526-0.242,0.797-0.325
				c-0.185-0.708-0.208-1.47-0.036-2.232c0.573-2.56,3.112-4.169,5.672-3.595c0.285,0.063,0.56,0.152,0.82,0.263
				c0.313-0.661,0.785-1.26,1.406-1.734C125.981,48.565,128.96,48.965,130.552,51.05z"/>
		</g>
		<path style="fill-rule:evenodd;clip-rule:evenodd;fill:#323232;" d="M127.71,117.113l5.67-52.231l-12.723-5.559h-18.292
			c-4.241,1.853-10.14,3.374-12.723,5.559l5.471,52.231H127.71z"/>
		<g>
			<path style="fill-rule:evenodd;clip-rule:evenodd;fill:#FFFFFF;" d="M129.291,77.355c-0.035,0.052-0.073,0.1-0.114,0.143
				c0.083,0.136,0.142,0.299,0.167,0.479c0.086,0.605-0.237,1.184-0.723,1.29c-0.054,0.012-0.107,0.018-0.161,0.018
				c-0.006,0.171-0.045,0.344-0.118,0.502c-0.246,0.533-0.791,0.715-1.217,0.408c-0.048-0.034-0.092-0.074-0.132-0.117
				c-0.094,0.127-0.211,0.228-0.35,0.29c-0.462,0.21-0.973-0.088-1.142-0.666c-0.019-0.064-0.032-0.13-0.041-0.194
				c-0.137,0.022-0.278,0.004-0.417-0.059c-0.462-0.211-0.7-0.85-0.532-1.428c0.02-0.065,0.042-0.126,0.069-0.184
				c-0.115-0.093-0.216-0.221-0.289-0.379c-0.246-0.533-0.1-1.215,0.326-1.522c0.048-0.034,0.097-0.063,0.147-0.085
				c-0.041-0.163-0.052-0.342-0.026-0.522c0.086-0.606,0.548-1.01,1.032-0.903c0.054,0.012,0.106,0.029,0.156,0.053
				c0.053-0.158,0.137-0.304,0.248-0.422c0.377-0.395,0.939-0.334,1.256,0.138c0.035,0.053,0.065,0.108,0.092,0.166
				c0.122-0.079,0.261-0.123,0.407-0.123c0.492,0,0.892,0.499,0.892,1.114c0,0.068-0.006,0.135-0.016,0.201
				c0.135,0.037,0.264,0.115,0.376,0.232C129.558,76.181,129.608,76.884,129.291,77.355z"/>
			<rect x="123.626" y="77.116" style="fill-rule:evenodd;clip-rule:evenodd;fill:#323232;" width="6.42" height="3.702"/>
		</g>
		<polygon style="fill-rule:evenodd;clip-rule:evenodd;fill:#FFFFFF;" points="102.366,59.324 111.505,103.325 120.658,59.324 		"/>
		<rect x="109.888" y="62.958" style="fill-rule:evenodd;clip-rule:evenodd;fill:#E6E6E6;" width="0.519" height="36.505"/>
		<g>
			<polygon style="fill-rule:evenodd;clip-rule:evenodd;fill:#1A1A1A;" points="102.366,59.324 93.786,68.949 103.707,77.454 
				96.619,82.062 111.505,103.325 			"/>
			<polygon style="fill-rule:evenodd;clip-rule:evenodd;fill:#1A1A1A;" points="120.658,59.324 129.224,68.949 119.302,77.454 
				126.39,82.062 111.505,103.325 			"/>
		</g>
		<polygon style="fill-rule:evenodd;clip-rule:evenodd;fill:#1A1A1A;" points="110.384,117.113 112.865,117.113 112.865,101.383 
			111.505,102.673 110.384,101.609 		"/>
		<rect x="105.808" y="45.732" style="fill-rule:evenodd;clip-rule:evenodd;fill:#E7B791;" width="11.633" height="16.416"/>
		<polygon style="fill-rule:evenodd;clip-rule:evenodd;fill:#FFFFFF;" points="102.366,59.324 106.02,55.362 111.624,59.324 
			104.034,67.342 		"/>
		<polygon style="fill-rule:evenodd;clip-rule:evenodd;fill:#FFFFFF;" points="120.658,59.324 116.892,55.013 111.624,59.324 
			119.031,67.342 		"/>
		<polygon style="fill-rule:evenodd;clip-rule:evenodd;fill:#E6E6E6;" points="104.034,67.342 111.624,63.333 119.031,67.342 
			111.624,59.324 		"/>
		<g>
			<g>
				<path style="fill-rule:evenodd;clip-rule:evenodd;fill:#212E36;" d="M112.781,62.467c1.328-0.702,4.913-3.29,5.643-2.633
					c1.005,0.906,1.005,6.092,0,6.998c-0.729,0.658-4.314-1.931-5.643-2.633C112.399,63.74,112.399,62.926,112.781,62.467z"/>
				<path style="fill-rule:evenodd;clip-rule:evenodd;fill:#212E36;" d="M110.283,62.467c-1.328-0.702-4.912-3.29-5.642-2.633
					c-1.005,0.906-1.005,6.092,0,6.998c0.73,0.658,4.314-1.931,5.642-2.633C110.664,63.74,110.664,62.926,110.283,62.467z"/>
			</g>
			<path style="fill-rule:evenodd;clip-rule:evenodd;fill:#405059;" d="M110.552,62.061h1.959c0.338,0,0.613,0.276,0.613,0.614
				v1.316c0,0.339-0.275,0.614-0.613,0.614h-1.959c-0.338,0-0.613-0.275-0.613-0.614v-1.316
				C109.939,62.337,110.214,62.061,110.552,62.061z"/>
		</g>
		<path style="fill-rule:evenodd;clip-rule:evenodd;fill:#1A1A1A;" d="M99.861,191.35c4.896,0,8.89-2.006,8.89-4.466
			c0-2.459-3.993-4.465-8.89-4.465c-4.896,0-8.89,2.006-8.89,4.465C90.971,189.344,94.964,191.35,99.861,191.35z"/>
		<path style="fill-rule:evenodd;clip-rule:evenodd;fill:#1A1A1A;" d="M123.28,191.35c4.896,0,8.89-2.006,8.89-4.466
			c0-2.459-3.994-4.465-8.89-4.465c-4.896,0-8.89,2.006-8.89,4.465C114.39,189.344,118.383,191.35,123.28,191.35z"/>
		<path style="fill-rule:evenodd;clip-rule:evenodd;fill:#FFD8B8;" d="M111.624,56.602c14.811,0,26.891-9.312,26.891-20.728
			c0-11.416-12.08-20.727-26.891-20.727c-14.811,0-26.89,9.31-26.89,20.727C84.735,47.29,96.814,56.602,111.624,56.602z"/>
		<g>
			<path style="fill-rule:evenodd;clip-rule:evenodd;fill:#666666;" d="M103.45,36.485c0.823,0,1.494-1.175,1.494-2.615
				c0-1.44-0.671-2.614-1.494-2.614c-0.823,0-1.494,1.174-1.494,2.614C101.955,35.311,102.626,36.485,103.45,36.485z"/>
			<path style="fill-rule:evenodd;clip-rule:evenodd;fill:#666666;" d="M119.798,36.485c0.823,0,1.494-1.175,1.494-2.615
				c0-1.44-0.671-2.614-1.494-2.614c-0.822,0-1.494,1.174-1.494,2.614C118.304,35.311,118.976,36.485,119.798,36.485z"/>
		</g>
		<path style="fill-rule:evenodd;clip-rule:evenodd;fill:#FFF4C7;" d="M128.806,21.021c-11.358-3.173-39.054-9.013-39.39,16.765
			c-0.013,0.998-3.565-6.316-4.259-5.502c2.315-12.268,17.514-19.154,30.438-17.37C120.367,15.572,124.723,16.826,128.806,21.021z"
			/>
		<path style="fill-rule:evenodd;clip-rule:evenodd;fill:#E7B791;" d="M120.498,43.577c-3.868,0.749-13.337,0.684-17.748,0
			C107.306,49.049,116.864,49.239,120.498,43.577z"/>
		<path style="fill-rule:evenodd;clip-rule:evenodd;fill:#FFF4C7;" d="M137.329,30.453c-15.963-17.738-43.849,3.829-45.347-24.455
			c6.896,6.9,9.334,8.832,19.099,8.543C118.099,14.334,133.388,15.258,137.329,30.453z"/>
		<path style="fill-rule:evenodd;clip-rule:evenodd;fill:#FFF4C7;" d="M137.33,33.67c-0.323-1.05-3.34,6.592-3.453,2.647
			C133.13,10.387,93.152,28.473,99.746,0c4.831,8.475,5.771,11.89,15.371,13.849C124.898,15.844,136.906,18.92,137.33,33.67z"/>
		
			<ellipse transform="matrix(-0.2257 -0.9742 0.9742 -0.2257 73.0174 122.4191)" style="fill-rule:evenodd;clip-rule:evenodd;fill:#FFD8B8;" cx="85.158" cy="32.192" rx="5.761" ry="3.686"/>
		
			<ellipse transform="matrix(0.2257 -0.9742 0.9742 0.2257 73.8941 162.2003)" style="fill-rule:evenodd;clip-rule:evenodd;fill:#FFD8B8;" cx="138.985" cy="34.614" rx="5.761" ry="3.686"/>
		<path style="fill-rule:evenodd;clip-rule:evenodd;fill:#FFEDDE;" d="M76.191,101.114c-8.154-10.431-14.441-15.757-14-27.67
			c1.935-5.954,5.248-7.712,10.133-5.839c3.799,2.511,6.241,1.808,7.752,7.572l6.146,21.646L76.191,101.114z"/>
		<path style="fill-rule:evenodd;clip-rule:evenodd;fill:#F2F8FA;" d="M63.385,82.749c1.339-0.51,7.675-12.95,14.184-13.097
			c1.096,1.693,2.001,3.6,2.506,5.525l6.084,21.428l0.061,0.22l-11.102,4.454C70.73,95.82,66.451,90.197,63.385,82.749z"/>
		
			<ellipse transform="matrix(0.2129 -0.9771 0.9771 0.2129 20.0163 253.0235)" style="fill-rule:evenodd;clip-rule:evenodd;fill:#CAD3D7;" cx="167.062" cy="114.087" rx="4.212" ry="8.387"/>
		
			<ellipse transform="matrix(0.5574 -0.8302 0.8302 0.5574 -30.3882 187.1895)" style="fill-rule:evenodd;clip-rule:evenodd;fill:#CAD3D7;" cx="160.373" cy="122.096" rx="4.213" ry="8.387"/>
		<g>
			<path style="fill-rule:evenodd;clip-rule:evenodd;fill:#F2F8FA;" d="M82.118,92.085c9.93-10.024,17.983-12.214,24.625-11.604
				c6.462,0.592,11.065,1.841,20.177-2.039c7.996-3.404,13.286-1.791,19.277,7c3.83,5.62,8.817,2.414,15.402,5.412
				c4.899,2.23,7.924,7.867,6.88,17.198c-1.044,9.332-11.779,20.535-30.671,11.407c-7.724-3.732-1.248,11.051-2.348,18.692
				c-1.785,12.402-16.839,21.468-20.282,24.788c-5.994,5.78-16.673,3.737-16.824-2.726c-0.218-9.321-0.137-12.153-5.827-14.721
				c-8.021-3.619-12.087-11.019-9.197-19.561c2.697-7.975-1.778-11.713-5.17-16.022C74.865,105.724,72.189,102.11,82.118,92.085z"/>
			<path style="fill-rule:evenodd;clip-rule:evenodd;fill:#F2F8FA;" d="M80.941,91.307c7.76-7.795,15.357-9.204,21.982-8.2
				c6.458,0.978,12.273,4.158,18.475-0.223c8.084-5.711,15.162-3.581,22.109,4.628c4.363,5.156,6.454,4.795,13.582,4.484
				c4.376-0.19,14.211,14.384,9.52,20.738c-4.69,6.354-8.295,11.025-29.03,6.308c-14.905-3.392,4.36,20.734-9.112,32.88
				c-13.473,12.146-22.866,3.808-23.466-1.366c-0.878-7.575-1.09-9.786-6.912-12.462c-8.224-3.778-12.694-10.48-10.789-17.568
				c1.788-6.654-3.055-10.504-7.005-14.465C76.457,102.212,73.181,99.101,80.941,91.307z"/>
			<path style="fill-rule:evenodd;clip-rule:evenodd;fill:#F2F8FA;" d="M79.913,91.307c9.163-9.163,13.593-7.208,20.102-5.953
				c6.369,1.229,12.203,4.442,17.656,1.168c7.24-4.348,14.304-2.021,21.774,5.53c4.681,4.731,6.79,4.624,13.732,4.617
				c4.568-0.004,15.324,13.048,11.367,18.489c-3.958,5.441-5.092,9.021-24.873,4.006c-11.988-3.041,2.294,20.204-7.932,28.654
				c-10.227,8.451-21.991,0.336-22.839-4.039c-1.229-6.348-1.594-8.26-7.408-10.971c-8.212-3.828-13.019-9.949-11.862-15.934
				C91.796,105.668,70.751,100.47,79.913,91.307z"/>
			<path style="fill-rule:evenodd;clip-rule:evenodd;fill:#F2F8FA;" d="M77.894,91.685c3.768-3.705,10.655-4.287,16.929-2.56
				c6.18,1.703,12.048,5.109,16.098,3.661c5.437-1.944,12.4,0.812,20.794,7.243c5.155,3.95,7.104,4.146,13.409,5.041
				c4.298,0.609,23.586,11.984,12.766,16.852c-10.821,4.866-15.525-10.367-26.964-6.804c-7.004,2.182,7.972,17.937,4.296,25.769
				c-3.676,7.833-16.874-5.381-18.358-8.412c-2.117-4.325-2.921-5.77-8.688-8.59c-8.306-4.06-13.808-9.23-14.205-13.374
				c-0.387-4.024-5.702-7.753-10.524-10.759C78.685,96.783,74.127,95.39,77.894,91.685z"/>
			<path style="fill-rule:evenodd;clip-rule:evenodd;fill:#F2F8FA;" d="M76.568,91.93c2.094-2.025,8.778-2.356,14.908-0.367
				c6.028,1.955,11.877,5.379,15.07,5.04c4.147-0.44,10.918,2.784,19.791,8.601c5.401,3.541,7.232,3.969,12.797,5.386
				c3.876,0.986,19.265,11.829,13.962,11.757c-8.934-0.123-15.327-7.778-18.284-5.66c-3.616,2.59,2.836,19.693,0.328,19.271
				c-4.559-0.769-10.398-7.876-12.437-10.157c-2.944-3.292-4.172-4.396-9.983-7.354c-8.353-4.254-14.453-8.927-15.912-11.95
				c-1.426-2.951-6.949-6.646-12.094-9.234C79.58,94.676,74.473,93.955,76.568,91.93z"/>
		</g>
		
			<ellipse transform="matrix(-0.4959 -0.8684 0.8684 -0.4959 23.9744 212.7766)" style="fill-rule:evenodd;clip-rule:evenodd;fill:#FFD8B8;" cx="73.746" cy="99.43" rx="3.758" ry="2.143"/>
		<path style="fill-rule:evenodd;clip-rule:evenodd;fill:#FFD8B8;" d="M74.888,68.203c16.848,2.661,19.22,7.003,40.547-5.869
			l2.426,2.921c-12.104,13.478-31.358,13.101-42.416,11.457C64.873,75.141,65.631,66.74,74.888,68.203z"/>
		<path style="fill-rule:evenodd;clip-rule:evenodd;fill:#FFD8B8;" d="M115.618,59.342c0.742-1.347,1.61-1.389,2.319-0.564
			c1.664-1.74,6.23,0.414,5.221,3.666c-0.657,2.116-4.572,5.065-6.609,3.943C114.51,65.265,114.093,62.11,115.618,59.342z"/>
		
			<ellipse transform="matrix(-0.992 0.1259 -0.1259 -0.992 287.5668 219.8884)" style="fill-rule:evenodd;clip-rule:evenodd;fill:#FFD8B8;" cx="136.835" cy="119.031" rx="3.758" ry="2.143"/>
	</g>
</g>
<g>
</g>
<g>
</g>
<g>
</g>
<g>
</g>
<g>
</g>
<g>
</g>
<g>
</g>
<g>
</g>
<g>
</g>
<g>
</g>
<g>
</g>
<g>
</g>
<g>
</g>
<g>
</g>
<g>
</g>
</svg>
