<?xml version="1.0" encoding="UTF-8"?>
<svg width="34px" height="34px" viewBox="0 0 34 34" version="1.1" xmlns="http://www.w3.org/2000/svg" xmlns:xlink="http://www.w3.org/1999/xlink">
    <!-- Generator: Sketch 46.2 (44496) - http://www.bohemiancoding.com/sketch -->
    <title>Untitled 2</title>
    <desc>Created with Sketch.</desc>
    <defs>
        <polygon id="path-1" points="27 9.98334027 27 5.64556435 27 5 26.3492793 5.00208247 22 5.01561849 22.0167119 10"></polygon>
        <filter x="-130.0%" y="-130.0%" width="360.0%" height="360.0%" filterUnits="objectBoundingBox" id="filter-2">
            <feMorphology radius="1" operator="dilate" in="SourceAlpha" result="shadowSpreadOuter1"></feMorphology>
            <feOffset dx="0" dy="0" in="shadowSpreadOuter1" result="shadowOffsetOuter1"></feOffset>
            <feGaussianBlur stdDeviation="1.5" in="shadowOffsetOuter1" result="shadowBlurOuter1"></feGaussianBlur>
            <feComposite in="shadowBlurOuter1" in2="SourceAlpha" operator="out" result="shadowBlurOuter1"></feComposite>
            <feColorMatrix values="0 0 0 0 1   0 0 0 0 1   0 0 0 0 1  0 0 0 0.5 0" type="matrix" in="shadowBlurOuter1"></feColorMatrix>
        </filter>
    </defs>
    <g id="Page-1" stroke="none" stroke-width="1" fill="none" fill-rule="evenodd">
        <g id="instagram-logo" transform="translate(1.000000, 1.000000)" fill-rule="nonzero">
            <path d="M32,12.7154644 L32,25.8150784 C32,29.2270973 29.2258659,32 25.8159926,32 L6.18400737,32 C2.77300092,32 0,29.2270973 0,25.8150784 L0,12.7154644 L0,6.18378838 C0,2.77290272 2.77300092,0 6.18400737,0 L25.8148594,0 C29.2258659,0 32,2.77290272 32,6.18378838 L32,12.7154644 Z" id="Shape" stroke="#5A5A5A" fill="#555555"></path>
            <path d="M16.4977884,22 C19.528874,22 22,19.5332998 22,16.5 C22,15.3026157 21.6082496,14.1970825 20.9597589,13.2940644 C19.9604634,11.9085513 18.3359166,11 16.5011083,11 C14.6651934,11 13.0417532,11.9074447 12.0402445,13.2929577 C11.3895404,14.1959759 11.00111,15.3015091 11.0000033,16.4988934 C10.9966834,19.5321932 13.4655962,22 16.4977884,22 Z" id="Shape" stroke="#FFFFFF" fill="#FFFFFF"></path>
            <g id="Shape">
                <use fill="black" fill-opacity="1" filter="url(#filter-2)" xlink:href="#path-1"></use>
                <use stroke="#606060" stroke-width="1" fill="#FFFFFF" fill-rule="evenodd" xlink:href="#path-1"></use>
            </g>
        </g>
    </g>
</svg>