<?xml version="1.0" encoding="UTF-8"?>
<svg width="49px" height="32px" viewBox="0 0 49 32" version="1.1" xmlns="http://www.w3.org/2000/svg" xmlns:xlink="http://www.w3.org/1999/xlink">
    <!-- Generator: Sketch 46.2 (44496) - http://www.bohemiancoding.com/sketch -->
    <title>Untitled 2</title>
    <desc>Created with Sketch.</desc>
    <defs></defs>
    <g id="Page-1" stroke="none" stroke-width="1" fill="none" fill-rule="evenodd">
        <g id="vk-social" transform="translate(1.000000, 1.000000)" stroke="#474747">
            <path d="M46.750737,27.0932928 C46.6938254,26.9560762 46.6407707,26.8422564 46.5914873,26.7510663 C45.7760401,25.1080149 44.2177422,23.0912855 41.9175364,20.7003028 L41.8689387,20.6455504 L41.844597,20.6187016 L41.8199982,20.5911815 L41.7953136,20.5911815 C40.7513629,19.4778188 40.0902798,18.7292164 39.8134357,18.3459496 C39.3068882,17.6158536 39.1934078,16.8768401 39.4702519,16.1280458 C39.6658427,15.562303 40.4005509,14.3675308 41.6726623,12.5420992 C42.3418021,11.5746789 42.8717486,10.7993236 43.2631015,10.2151701 C46.0856255,6.01716645 47.3093106,3.33458649 46.9338997,2.16637546 L46.7881066,1.89338056 C46.6901398,1.72902747 46.4372946,1.57867412 46.0299138,1.4415534 C45.6215902,1.30472034 45.0997006,1.28209063 44.463302,1.3732807 L37.4158631,1.42774544 C37.3016971,1.38248601 37.1386762,1.38670511 36.9262862,1.4415534 C36.7141534,1.49640169 36.6080441,1.52392172 36.6080441,1.52392172 L36.4853928,1.59248208 L36.3880259,1.6748504 C36.3064298,1.72931514 36.2166911,1.82510787 36.1187243,1.96203681 C36.0212718,2.09848632 35.9397614,2.25862031 35.8746216,2.44109635 C35.1073435,4.6495071 34.2349846,6.70277007 33.2559166,8.60078936 C32.6522593,9.73256272 32.0978855,10.7134074 31.5915951,11.5438987 C31.0859904,12.3741024 30.6618104,12.9857758 30.3194837,13.3778644 C29.9766427,13.7703365 29.6672287,14.0847553 29.3893561,14.3222714 C29.1119121,14.5598834 28.9001221,14.6602788 28.7534719,14.6235534 C28.6064788,14.5868281 28.4680568,14.5503904 28.3370058,14.5139527 C28.1087594,14.3495997 27.9251681,14.1260833 27.786746,13.8432119 C27.647724,13.5603404 27.5541285,13.204306 27.5051879,12.7753962 C27.4565045,12.3461988 27.4277058,11.9770276 27.4194777,11.6666361 C27.4118495,11.3566282 27.4153636,10.9181296 27.4319056,10.3523867 C27.4488763,9.78635623 27.4565045,9.40337709 27.4565045,9.20258633 C27.4565045,8.50892807 27.4685896,7.75610653 27.4928456,6.94392994 C27.5175302,6.13175335 27.5375007,5.48824484 27.5542142,5.01417151 C27.5708419,4.53961874 27.5785559,4.03754594 27.5785559,3.50824077 C27.5785559,2.9789356 27.5497572,2.56383378 27.4928456,2.26255174 C27.4366197,1.96165326 27.3503095,1.66957653 27.236572,1.38641744 C27.1221488,1.10354602 26.954671,0.884728196 26.73491,0.729388635 C26.5147204,0.574240852 26.2409618,0.451119867 25.9151772,0.359642126 C25.0504466,0.140728412 23.9493271,0.022305969 22.6113045,0.00389535443 C19.5770763,-0.0325423203 17.6274254,0.18665906 16.7627805,0.661211828 C16.4201967,0.861714927 16.1101827,1.13566871 15.8329958,1.48221017 C15.5392668,1.88388759 15.4982973,2.10308897 15.7103444,2.13914309 C16.6893268,2.30320852 17.3823798,2.69568063 17.7902749,3.31617587 L17.9372679,3.64497794 C18.0516054,3.88220638 18.1657714,4.30219853 18.2800232,4.90437904 C18.3941035,5.50655956 18.4677286,6.17269779 18.5001271,6.90241017 C18.5815518,8.23497429 18.5815518,9.37566528 18.5001271,10.324579 C18.4184452,11.2738764 18.341306,12.0128899 18.2676809,12.5421951 C18.1940558,13.0715003 18.0840039,13.5004101 17.9372679,13.8288286 C17.7902749,14.157343 17.6924795,14.3581337 17.6434532,14.4310091 C17.5945127,14.5038844 17.5537146,14.5498151 17.5213161,14.5678421 C17.309269,14.6587446 17.0887365,14.7050588 16.8604902,14.7050588 C16.631901,14.7050588 16.354714,14.5771433 16.0285009,14.3215043 C15.7023734,14.0658652 15.3639036,13.7147211 15.0130916,13.2674966 C14.6622796,12.8201762 14.2666411,12.1950783 13.8260048,11.392107 C13.3857113,10.5891357 12.9288757,9.64012609 12.4557551,8.54507808 L12.0643165,7.75092855 C11.8196137,7.24003399 11.4853438,6.4961301 11.0611638,5.51988808 C10.6367267,4.54326251 10.261573,3.59856785 9.93544549,2.68599588 C9.80508021,2.30272907 9.60923231,2.01094001 9.34824462,1.81014924 L9.22576469,1.72778092 C9.14433996,1.65490557 9.01363184,1.57752346 8.83432602,1.49505925 C8.65476306,1.41269092 8.46740047,1.35362354 8.27146686,1.31728175 L1.56644037,1.37174648 C0.881272704,1.37174648 0.416380353,1.54540077 0.171591904,1.8922299 L0.0736250975,2.05629533 C0.0246845496,2.14767718 0,2.29361965 0,2.49450631 C0,2.69529707 0.0489405479,2.94173082 0.146907354,3.23351988 C1.12571831,5.80717038 2.1901538,8.28924725 3.34021382,10.680134 C4.49027384,13.0710208 5.48965526,14.9969437 6.3377581,16.4561767 C7.18603236,17.9164645 8.05067728,19.2946716 8.93169285,20.5901268 C9.81270842,21.8860614 10.3958809,22.7165528 10.6812103,23.0814089 C10.9668825,23.4469364 11.1912719,23.7202189 11.3543785,23.902695 L11.966264,24.5596279 C12.3577883,24.997743 12.9327326,25.5224455 13.691354,26.1337354 C14.4501468,26.7454089 15.2901928,27.3475894 16.2119208,27.9412359 C17.1338201,28.5339234 18.2063124,29.0175856 19.4299975,29.3916471 C20.6535112,29.7660921 21.8443693,29.9163496 23.0027432,29.8438578 L25.8169533,29.8438578 C26.3876978,29.7887219 26.8201059,29.5879311 27.1140064,29.2413896 L27.2113732,29.104173 C27.2768558,28.9952435 27.3381386,28.8260001 27.3947074,28.5982647 C27.4519618,28.3701457 27.4804176,28.1188216 27.4804176,27.8454431 C27.4637041,27.0607866 27.5171016,26.353608 27.639153,25.7240034 C27.7611187,25.0945905 27.9001407,24.6200377 28.0556191,24.3004409 C28.2110117,23.9811318 28.3863749,23.7116848 28.5815371,23.4932506 C28.7771279,23.2743368 28.9164927,23.1417229 28.9982603,23.0960799 C29.0795136,23.0501493 29.1443963,23.0189855 29.1933368,23.0002872 C29.5848612,22.8543447 30.0456395,22.9956845 30.5763573,23.4249779 C31.1066465,23.8538877 31.6040231,24.3834805 32.0692583,25.0128934 C32.5342363,25.6428816 33.0928957,26.3496766 33.745322,27.1343331 C34.3981769,27.9192774 34.9690072,28.5027596 35.4582412,28.8866017 L35.9474753,29.2151161 C36.2742027,29.4343175 36.6983827,29.6351083 37.2205295,29.8175843 C37.7417335,29.9999645 38.1983976,30.0456075 38.590522,29.9544174 L44.8548264,29.8451044 C45.4744258,29.8451044 45.9565459,29.7303257 46.2985297,29.5025902 C46.6411993,29.2744712 46.8447611,29.0231471 46.9104151,28.7497687 C46.9758978,28.4761026 46.9794119,28.1656152 46.9228431,27.8184984 C46.8648173,27.4722446 46.8076486,27.2301259 46.750737,27.0932928 Z" id="Shape"></path>
        </g>
    </g>
</svg>